<?xml version="1.0" encoding="utf-8"?>
<!-- Generator: Adobe Illustrator 25.1.0, SVG Export Plug-In . SVG Version: 6.00 Build 0)  -->
<svg version="1.1" id="Layer_1" xmlns="http://www.w3.org/2000/svg" xmlns:xlink="http://www.w3.org/1999/xlink" x="0px" y="0px"
	 viewBox="0 0 175.9 189.63" style="enable-background:new 0 0 175.9 189.63;" xml:space="preserve">
<style type="text/css">
	.st0{fill:#FFFFFF;}
</style>
<g>
	<path d="M0.19,0c57.85,0,115.52,0,173.5,0c0.05,0.87,0.15,1.74,0.15,2.61c0.01,61.3-0.01,122.6,0.05,183.9
		c0,2.36-0.61,3.12-3.06,3.11c-55.96-0.06-111.92-0.06-167.89,0C0.66,189.62,0,189,0,186.69C0.06,125.31,0.05,63.93,0.05,2.55
		C0.05,1.74,0.14,0.93,0.19,0z M3.17,94.95c0,29.45,0.03,58.9-0.05,88.35c-0.01,2.48,0.63,3.29,3.21,3.28
		c53.81-0.07,107.62-0.07,161.44,0c2.59,0,3.2-0.82,3.19-3.27c-0.06-58.98-0.04-117.97-0.05-176.95c0-3.27-0.03-3.29-3.38-3.29
		c-53.65,0-107.29,0-160.94,0c-3.41,0-3.42,0.01-3.42,3.53C3.17,36.05,3.17,65.5,3.17,94.95z"/>
	<path class="st0" d="M3.17,94.95c0-29.45,0-58.9,0-88.35c0-3.52,0.01-3.53,3.42-3.53c53.65,0,107.29,0,160.94,0
		c3.35,0,3.38,0.02,3.38,3.29c0,58.98-0.01,117.97,0.05,176.95c0,2.46-0.6,3.28-3.19,3.27c-53.81-0.07-107.62-0.07-161.44,0
		c-2.58,0-3.22-0.81-3.21-3.28C3.2,153.85,3.17,124.4,3.17,94.95z M168.65,94.69c0-28.53,0-57.06,0-85.58
		c0-3.59-0.01-3.61-3.55-3.61c-51.97,0-103.94,0-155.91,0c-3.67,0-3.68,0.01-3.68,3.77c0,56.97,0,113.95,0,170.92
		c0,4.01,0.01,4.02,3.96,4.02c51.8,0,103.61,0,155.41,0c3.76,0,3.77-0.01,3.77-3.68C168.65,151.92,168.65,123.3,168.65,94.69z"/>
	<path d="M168.65,94.69c0,28.61,0,57.22,0,85.83c0,3.67-0.01,3.68-3.77,3.68c-51.8,0-103.61,0-155.41,0c-3.95,0-3.96-0.01-3.96-4.02
		c0-56.97,0-113.95,0-170.92c0-3.75,0.01-3.77,3.68-3.77c51.97,0,103.94,0,155.91,0c3.54,0,3.55,0.01,3.55,3.61
		C168.65,37.64,168.65,66.17,168.65,94.69z M107.16,95.1c1.17-0.51,2.04-0.96,2.96-1.28c18.33-6.3,28.96-25.46,23.5-44.94
		c-4.54-16.2-18.92-26.8-36.02-26.87c-19.79-0.09-39.58,0.06-59.37,0.03c-2.13,0-2.72,0.8-2.72,2.79c0.02,34.6,0,69.2,0.01,103.79
		c0,0.8,0.26,1.59,0.4,2.39c0.26-0.01,0.51-0.02,0.77-0.03c0.1-0.76,0.2-1.52,0.28-2.28c0.17-1.57,0.13-3.19,0.53-4.7
		c3.93-14.87,13.11-24.3,28.36-27.66c2.47-0.54,3.36,0.2,4.3,2.26c10.17,22.28,20.43,44.52,30.62,66.8
		c0.76,1.67,1.58,2.68,3.65,2.67c11.06-0.08,22.12-0.03,33.18-0.05c2.5,0,2.72-0.37,1.72-2.56c-8.33-18.19-16.66-36.39-24.99-54.58
		C111.97,105.69,109.62,100.5,107.16,95.1z"/>
	<path class="st0" d="M107.16,95.1c2.45,5.4,4.81,10.59,7.18,15.78c8.33,18.2,16.66,36.39,24.99,54.58c1,2.19,0.78,2.55-1.72,2.56
		c-11.06,0.02-22.12-0.04-33.18,0.05c-2.06,0.02-2.88-1-3.65-2.67c-10.19-22.27-20.45-44.51-30.62-66.8
		c-0.94-2.06-1.83-2.8-4.3-2.26C50.63,99.7,41.45,109.13,37.52,124c-0.4,1.51-0.36,3.13-0.53,4.7c-0.08,0.76-0.19,1.52-0.28,2.28
		c-0.26,0.01-0.51,0.02-0.77,0.03c-0.14-0.8-0.4-1.59-0.4-2.39c-0.01-34.6,0.01-69.2-0.01-103.79c0-1.99,0.59-2.79,2.72-2.79
		c19.79,0.04,39.58-0.12,59.37-0.03c17.09,0.08,31.48,10.68,36.02,26.87c5.46,19.48-5.17,38.64-23.5,44.94
		C109.2,94.14,108.33,94.59,107.16,95.1z M133.85,59.3c0.23-0.06,0.46-0.11,0.68-0.17c-1.1-4.47-1.64-9.17-3.4-13.36
		c-5.96-14.21-16.95-21.66-32.32-22.43C88,22.8,80.09,33.6,83.87,43.75c1.73,4.66,4.02,9.11,6.08,13.64
		c5.13,11.26,10.26,22.51,15.43,33.75c0.54,1.18,0.76,2.74,2.94,2.08C123.43,88.68,133.83,74.93,133.85,59.3z M37.14,119.16
		c0.19,0.02,0.38,0.04,0.57,0.06c0.3-0.75,0.56-1.52,0.9-2.25C44,105.39,52.74,98,65.41,95.5c2.82-0.56,2.89-0.76,1.71-3.37
		C59,74.21,50.88,56.28,42.75,38.37c-1.68-3.71-3.42-7.4-5.14-11.09c-0.16,0.05-0.32,0.1-0.47,0.15
		C37.14,58,37.14,88.58,37.14,119.16z"/>
	<path d="M133.85,59.3c-0.02,15.63-10.42,29.38-25.52,33.92c-2.18,0.66-2.4-0.9-2.94-2.08c-5.17-11.24-10.3-22.49-15.43-33.75
		c-2.06-4.53-4.35-8.98-6.08-13.64C80.09,33.6,88,22.8,98.82,23.34c15.36,0.77,26.36,8.22,32.32,22.43c1.76,4.19,2.3,8.89,3.4,13.36
		C134.3,59.18,134.08,59.24,133.85,59.3z"/>
	<path d="M37.14,119.16c0-30.58,0-61.16,0-91.74c0.16-0.05,0.32-0.1,0.47-0.15c1.71,3.7,3.45,7.38,5.14,11.09
		C50.88,56.28,59,74.21,67.12,92.13c1.18,2.61,1.11,2.81-1.71,3.37C52.74,98,44,105.39,38.61,116.97c-0.34,0.73-0.61,1.5-0.9,2.25
		C37.52,119.2,37.33,119.18,37.14,119.16z"/>
</g>
</svg>
