<svg id="Layer_1" data-name="Layer 1" xmlns="http://www.w3.org/2000/svg" viewBox="0 0 884.87 770.16"><defs><style>.cls-1{fill:#f3d4d3;}.cls-2{fill:#eae5bb;}</style></defs><path d="M197.38,896.42c1.7-.26,3.39-.66,5.1-.78q68.31-4.74,136.62-9.43,79.8-5.38,159.6-10.57c38.24-2.48,76.49-4.82,114.73-7.23,14.42-.91,28.89-2.79,43.35,2.57-6-10.47-8.06-21.64-8.73-33.1-.66-11.25-.46-22.47,2.42-33.36l2.06.08a45.29,45.29,0,0,1,.29,5.44c-.75,13.21-.41,26.34,3,39.2,3.66,13.69,11.25,24.17,23.34,32.29,49.64,33.36,105.88,45.52,163.92,51.78,14.5,1.56,29.28.69,43.94.82,2.93,0,5.87-.48,9.36-.79-3.17-11.63-6.16-22.69-9.21-33.72a5,5,0,0,0-1.33-2c-11.06-11.07-30.51-10.05-40.54,2A42.67,42.67,0,0,1,838,907c-2.37,1.73-5.44,2.51-9.32,4.19,1-9.77,1.79-18,2.54-26.23a38.66,38.66,0,0,0,.29-8c-1-8.43-7-10.77-14.3-6.66-5.69,3.18-12,5.23-18.18,7.5-1.54.57-3.48.09-5.54-.81,1.75-1.07,3.48-2.18,5.26-3.21,15.39-9,25.07-21.74,26.32-39.94.59-8.6,1.43-17.29.8-25.85-.88-12-8.08-20.11-19.43-23.48-8.2-2.43-16.88-3.28-25.44-4.85,3.21-1.39,6.86-2.47,10-4.41,8.14-5.07,16.63-9.83,23.87-16,7.6-6.5,10.93-15.72,11.09-25.9a70.21,70.21,0,0,1,.88-11c.51-2.9.9-6.74,2.85-8.3,8-6.42,3.49-13.17,1.7-20-16.57-.78-33.27.9-48.65-8.56l21.71,3.78.42-1.08c-2.75-2.4-5.67-4.65-8.18-7.29-.83-.87-.62-2.73-.89-4.14,1.27.42,2.85.49,3.75,1.31,5.92,5.41,12.66,9.25,20.59,10.56,3,.5,6.15.08,9.71.08-.85-3.74-1.5-6.56-2.32-10.11,4.82,1.48,10.27.31,10.92,7.6a62.92,62.92,0,0,1,34.68-1.72C884.18,687,895,690.8,906,694c0-2.85-.18-6.78.1-10.67.09-1.17,1.44-2.26,2.21-3.38.78,1.06,2.28,2.14,2.25,3.19-.21,10.59,3.6,19.35,10.8,27.07,9,9.64,18.58,18.24,31.79,21.49,12.24,3,24.6,4.35,37.1,1.72a59.41,59.41,0,0,0,7.05-2.49c-6.52-3.59-12.44-6.56-18.06-10a53.13,53.13,0,0,1-10.64-8.18c-10.95-11.49-8.55-24.42,5.94-33.15a3.3,3.3,0,0,0-.38-1.27q-12.27-14.81-24.58-29.58c-2.24-2.69-4.57-5.31-6.63-8.14-9.67-13.29-22.83-19-39.1-19.39-14.63-.34-29.31-1.26-43.84-3-8-.94-15.68-4.34-23.63-6.07-6.3-1.38-12.82-2.82-19.17-2.52a28.68,28.68,0,0,0-14.82,4.88c-19.53,14.18-38.57,29-57.86,43.55-2,1.46-4.46,2.17-6.7,3.24q-30.39,14.49-60.76,29.06a5,5,0,0,0-2.36,3.28c-4.42,29.55,3.63,54.89,26.77,74.3,10.81,9.07,24.76,11,38.24,13.32,6.69,1.13,13.47,1.75,20.1,3-25.58-.21-51.71.89-71.44-19.92-18.75-19.78-26-43.63-22.77-70.76l-1.3-1c-1.57,1.55-3.89,2.82-4.59,4.69-4.49,12.09-3.8,24.48-1.2,37.13-9-7.9-10-23.32-2.57-39.51-76.56,8.63-153.14,11.9-229.79,13.48-76.49,1.58-153,2.94-229.08-6.77l0-2.36a31.21,31.21,0,0,1,3.87,0c59.89,7.69,120.07,6.61,180.2,5.42,41.31-.83,82.62-2.47,123.88-4.57,50.24-2.55,100.46-5.7,150.33-12.77,10.12-1.43,19.62-4.09,28.73-9.22,12.45-7,25.5-13,38.56-18.85a128.72,128.72,0,0,0,26.48-15.76c14.11-10.9,28.46-21.47,42.74-32.14,3.46-2.58,7-5,9.77-7-4.74-6.5-10.19-12.75-14.24-19.81-6.14-10.69-7.65-22.64-6.4-34.83.3-2.93-.77-3.79-3-5.19-7.29-4.58-14.84-9-21.28-14.6-17-14.83-19.49-41.63-2.7-57.82-1.79-3.3-3.82-6.52-5.37-10-4.82-10.79-4.06-21.38,3.2-30.65,5.6-7.13,12.36-13.35,19.07-20.48a51.05,51.05,0,0,1-6.43-24.62c.12-21.88,15.75-43.82,36.49-50.61,3.9-1.28,5.57-2.72,5-7.36-3.23-24.7,4.66-39.26,26.94-50.63a46.54,46.54,0,0,1,8.7-3.73c10-2.74,16.54-9.1,21.6-17.94,5.79-10.11,12.06-20,18.79-29.48,14.22-20.05,32.52-35.25,55.88-43.48,6-2.1,12.68-2.48,19.1-2.78,5.87-.28,7.85,2.75,5.88,8.41a35.67,35.67,0,0,1-5,9.09c-7.15,9.83-7.59,20-1.92,30.5,5.12,9.44,13.1,15.73,22.85,20.05,5.15,2.28,10.42,4.6,15,7.84,9.26,6.62,12.26,16,9.23,26.9-1.41,5.1-3.69,10-5.59,14.93-.57,1.5-1.19,3-1.88,4.67,33.51-2.34,61.5,31.56,36.51,66.91,16.58-1.24,30.57,3.14,37.82,19.09,8.78,19.32,4.92,37-9.35,52.45,25.28,15.53,26,47.76,13.72,69.64-6.28,11.17-14.74,20.07-26.21,26-1.33.69-3,2.44-3,3.74-.3,10.78-5.59,18.91-13,26.11-1.59,1.56-3.3,3.48-3.87,5.53-6.21,22.29-12.21,44.63-18.24,67a10.2,10.2,0,0,0-.1,1.9c14,4.84,25.55,12.42,29.12,28.33,3.34,14.91.57,28.07-10.22,39.18,12.19,14.4,16.46,30.78,11.91,48.68-1.74,6.84-5.93,13.31-10.08,19.19-2.41,3.43-2.59,5.7-1.67,9.63,2.1,9,3.91,18.21,4.27,27.4.38,9.75-4.42,18.1-11.62,24.58A201.81,201.81,0,0,1,1003.87,852c-2.18,1.57-2.88,2.62-2.51,5.51a286.47,286.47,0,0,1,2.48,28.78c.28,10.38-4.63,18.48-13,24.62-12.92,9.5-27.63,15.22-42.59,20.42-5.34,1.86-10.85,3.24-16.15,5.21a7.63,7.63,0,0,0-3.93,3.72c-4.58,10.74-18.25,13.88-26.33,5.6a8.28,8.28,0,0,0-7.37-2.7c-62.61,4.32-122.22-8.77-179.93-31.82a172.42,172.42,0,0,1-32.72-17.95c-19.71-13.45-40.76-18.68-64.64-17-47.53,3.4-95.15,5.52-142.73,8Q371.64,889.81,268.8,895c-22.3,1.13-44.61,2.11-66.91,3.15-1.42.06-2.84,0-4.26,0ZM952.16,188.1c-7.42,2.67-14.51,4.48-20.92,7.67-20.69,10.29-36.36,26.13-48.4,45.71-4.8,7.8-9.71,15.54-14.43,23.39a37.22,37.22,0,0,1-20.53,16.53A81.35,81.35,0,0,0,833,288.26c-14.36,8.54-21.69,20.46-18.35,37.93,2.23,11.63-.14,14.64-11.42,18.28-25.85,8.35-37.62,41.73-22.73,64.47,3.28,5,2.81,5.8-2,9.62-5.86,4.62-11.92,9.24-16.76,14.83-9.18,10.62-9.11,20.31-1,31.8a40.37,40.37,0,0,0,3.12,3.9c2.9,3.2,2.55,5.91-1.07,8.24a22.69,22.69,0,0,0-10.62,16.76c-1.13,8.88.51,17.2,6.26,24.47,11.7,14.78,27.58,21.26,45.71,23.81,29.11,4.11,58.38,5.24,87.72,5.53,2.6,0,5.19,0,7.79,0-36.43,3.27-72.8,5.22-109.57,1-1.62,17.72,2.42,32.93,15.24,45,5.29,5,10,5.59,15.74,1.16,4.34-3.36,7.87-8,11.14-12.45,4.2-5.76,7.19-12.46,11.74-17.88,7.38-8.78,16.5-7.67,22.55,2,.7,1.13,1.33,2.31,2,3.48,6.14,11.28,15.71,14.37,27.3,8.83,4.5-2.15,8.86-4.7,13.54-6.35,10.35-3.66,17.64-1.44,24.15,7.17,2.56,3.38,5.51,4,9.17,2.71,3.91-1.43,7.68-3.23,11.64-4.46,11-3.43,19.27,1.65,21.32,13a28.65,28.65,0,0,1,.45,6.47c-1,19.78-1.47,39.63-7.1,58.86-.38,1.28-.55,3.25.15,4.1,4.42,5.33,9.12,10.44,14.25,16.21,1.22-3,2.16-5,2.8-7,3.26-10.46,1.8-21.11,1.35-31.75s-.79-21.29-.48-31.92c.43-14.76,7.21-26,20.13-33.49,4.76-2.74,9.56-5.46,14.05-8.61,7.83-5.52,14-12.23,15.11-22.47.21-1.84,2.34-3.95,4.13-5.06,15.29-9.54,25.17-23.14,30-40.3,3.89-13.72,3.22-27.07-5.59-39.08-3.18-4.32-7.17-7.21-12.79-7.81-2-.22-4.63-1.49-5.43-3.06-.65-1.26.59-4.05,1.75-5.57,2.62-3.44,5.8-6.44,8.61-9.73,9.57-11.25,10.75-28.94,3.11-41.11-6.11-9.73-19.5-14-34.44-8.6a50,50,0,0,1-12.19,2.34c-3.35.33-6.56-1-7.31-4.65-.79-3.9,2.38-4.83,5.31-6,13.43-5.19,22.7-20.2,20.94-33.66-2.46-18.76-22.33-31.21-41.09-25.92-2,.56-5.36.69-6.25-.43-1.22-1.54-1.4-4.71-.73-6.76a151,151,0,0,1,6.11-14.74c8.43-19,5.66-26.09-13.58-34-9.28-3.8-17.39-9.16-23.68-17-8-9.93-12.43-21.13-9.1-33.9C945.57,200.64,949,195.17,952.16,188.1ZM872.94,774.49c.7,3.24,1.26,6,1.91,8.72,3.08,13.06-.85,20.79-13.41,25.42-5.75,2.12-11.75,3.58-18.52,5.61,3.63,2,6.42,3.78,9.43,5.1,10,4.43,20.59,6.38,31.49,6.91,10.41.5,21.06,0,31.16,2,25.23,5.2,50.2,11.66,75.31,17.46,1.89.44,4.53.3,6-.72a191.9,191.9,0,0,0,17.59-13c8.26-7.06,11.08-16.49,9.51-27-.88-5.88-2.82-11.6-4.2-17.41-.8-3.4-2.91-4.66-6.31-5.08-36.48-4.57-72.94-9.3-109.42-13.9-4.25-.54-8.78-1.51-12.8-.61C884.79,769.26,879.2,772.09,872.94,774.49ZM986.48,882.3a34.49,34.49,0,0,0,.68-4.6c.17-6.46.33-12.93.26-19.4,0-2.87-1.35-4.5-4.69-5.22-23.58-5.1-47-11.3-70.71-15.44-10.28-1.79-21.27.46-32,.88.42,8.58,1.75,16.86-5.71,20.72-6.13,3.18-13.61,3.78-20.47,5.51,5.79,8.32,14.45,11.57,24.76,10.86,13.11-.9,24.76,2.28,34.43,11.51s21.29,13.31,34.51,13.39a23,23,0,0,1,4.67,1l-.12,1.7-14.26,1.45c-1.88,7-3.79,14.09-5.95,22.09,7.67-2.66,14.5-4.42,20.78-7.35q16.67-7.77,32.74-16.8a16.12,16.12,0,0,0,8.53-15c-.43-10.09-1.5-20.16-2.51-30.22-.11-1.12-1.6-2.1-2.45-3.15C992.13,864.27,992.19,873.45,986.48,882.3ZM850.58,756.4c9.33,6.83,19.76,9.2,31.51,5.51,4.32-1.36,9-3.26,13.3-2.75,37.85,4.47,75.64,9.48,113.46,14.2,11.73,1.47,14.26,0,19.67-10.7a36.72,36.72,0,0,0,3.27-9.37c3-15.45-2-28.64-12-40.75a10.66,10.66,0,0,0-1.3,2.56c-3.21,17-15.81,23.38-30.68,26.06-13.1,2.37-26.23.39-39-3.42-13.08-3.91-23-12.47-31.91-22.34-1.5-1.66-3.35-3.91-5.25-4.14-12.93-1.57-25.6-1.34-35.91,8.94.66,1.15,1.45,2.59,2.28,4,5.74,9.74,3.55,18.86-6.49,23.87C865,751.38,857.78,753.59,850.58,756.4ZM881.76,593l-.06,1.59c7.63,5.88,14.82,12.51,23.07,17.32,4.3,2.51,11.66,4.13,15.57,2.12,10.37-5.33,19.61-12.85,29.3-19.49-.14-.64-.28-1.28-.41-1.92-2.25-.31-4.59-1.17-6.74-.82-6.79,1.09-12-.85-16.08-6.48-3.75-5.22-7.21-6.47-13.37-4.54-3.45,1.09-6.64,3-10,4.44-4.12,1.73-8.28,3.4-12.47,4.95C887.68,591.24,884.7,592.07,881.76,593Zm85.83,106c.17,5,3.42,9.62,8.11,12.52,8.85,5.48,18.2,10.17,27.42,15a4.5,4.5,0,0,0,3.67.19c4.26-2.32,7.24-13.88,4.66-18a51.68,51.68,0,0,0-28.34-22.39C975.35,683.81,967.74,689.61,967.59,699Zm39.16-48.18c-3.07,11.35-6.15,22.37-8.9,33.47-.29,1.16,1.06,3.09,2.15,4.17,4.1,4.1,8.67,7.75,12.55,12,4.28,4.73,5.37,4.86,10.13.34C1035.44,688.72,1034.9,657.36,1006.75,650.8ZM929.11,902.9c-14.31-1.63-22.39-15.16-36.77-18.2,4.95,18.11,9.47,35.3,14.52,52.32.57,1.94,4.08,4.12,6.25,4.15s5.8-2,6.41-4C923,926.17,925.84,914.9,929.11,902.9ZM951,636.1c8.55-4.66,17.36-9.93,15.18-22.77-.16-.94.39-2,.31-3-.17-2.18.27-5.38-1-6.33-3.87-3-8.39-5.18-12.71-7.6-.23-.13-.87.36-1.25.65-8.36,6.46-16.7,12.94-24.14,18.7ZM874.4,593c-5.79-8.08-10.94-15.15-15.95-22.31-2.43-3.47-4.93-3.61-7.67-.55a38.4,38.4,0,0,0-4,5.06c-5.61,8.82-11.12,17.7-16.75,26.7,4.4.83,10,3.62,14.6,2.4C854.92,601.53,864.72,596.79,874.4,593Zm-7,183.56C858,780.11,849,783.47,840.1,787c-1.09.43-2.57,1.6-2.67,2.55a130.1,130.1,0,0,0-.86,15.52c0,2.83,2.26,3.76,5,3.05,5.6-1.46,11.35-2.49,16.8-4.38,11.09-3.85,13.46-8.67,10.67-20.16C868.56,781.47,868.08,779.37,867.41,776.55ZM848.71,724,876,709.36c-6.17-6.44-12-12.6-17.91-18.63a5,5,0,0,0-3.41-1.51c-4.86.46-9.69,1.24-14.88,1.95C842.89,702.55,845.71,712.93,848.71,724Zm147.43-74.31,1.73.15c6.52-24,13-48.06,19.71-72.61-14.41,6.38-21,14.47-21.67,28.91S996,635.12,996.14,649.64ZM870.28,722.45c-10.21,5.24-19.95,10.22-29.66,15.28a3.59,3.59,0,0,0-1.82,2c-.76,3.8,4.43,9.57,8.43,9.69,8.86.28,16.6-3,23.86-7.59,4.46-2.78,5.63-8,3.23-12.71C873.21,726.92,871.77,724.88,870.28,722.45Zm8.28-126.68-28.95,11.06c7.89,3.76,38.2,7,46.94,4.88Zm-4.93,244c-7.22,1-14.57,2-21.87,3.19a4.69,4.69,0,0,0-2.89,2.79c-2.46,7.86.51,11.89,8.57,11.9,1.65,0,3.31-.09,5-.22C873.06,856.6,876.71,851.19,873.63,839.75Zm29.55-137.5c-9.3-7-32.19-13.61-42-12.23,6.09,5.28,11.78,10.31,17.61,15.16.8.67,2.8,1.11,3.41.62C888.28,700.87,895.45,702.44,903.18,702.25Zm61.45-116.91L956.34,593l9.91,6.62,1.41-.83C966.75,594.76,965.84,590.71,964.63,585.34ZM965,631l-11.42,9,9.28,3.68C963.57,639.57,964.16,636.05,965,631Z" transform="translate(-197.12 -180.37)"/><path d="M505.19,771.39c21.25-3.3,98.27-.8,110.54,3.48A602,602,0,0,1,505.19,771.39Z" transform="translate(-197.12 -180.37)"/><path d="M531.94,798.88l74.56-11.37.27,1.71a184.06,184.06,0,0,1-74.6,11.17Z" transform="translate(-197.12 -180.37)"/><path d="M913.45,660.11l5.9-28,2.2.47q-3,14-6,28Z" transform="translate(-197.12 -180.37)"/><path class="cls-1" d="M952.16,188.1c-3.19,7.07-6.59,12.54-8.14,18.5-3.33,12.77,1.11,24,9.1,33.9,6.29,7.83,14.4,13.19,23.68,17,19.24,7.87,22,15,13.58,34a151,151,0,0,0-6.11,14.74c-.67,2.05-.49,5.22.73,6.76.89,1.12,4.26,1,6.25.43,18.76-5.29,38.63,7.16,41.09,25.92,1.76,13.46-7.51,28.47-20.94,33.66-2.93,1.13-6.1,2.06-5.31,6,.75,3.69,4,5,7.31,4.65a50,50,0,0,0,12.19-2.34c14.94-5.41,28.33-1.13,34.44,8.6,7.64,12.17,6.46,29.86-3.11,41.11-2.81,3.29-6,6.29-8.61,9.73-1.16,1.52-2.4,4.31-1.75,5.57.8,1.57,3.45,2.84,5.43,3.06,5.62.6,9.61,3.49,12.79,7.81,8.81,12,9.48,25.36,5.59,39.08-4.87,17.16-14.75,30.76-30,40.3-1.79,1.11-3.92,3.22-4.13,5.06-1.15,10.24-7.28,17-15.11,22.47-4.49,3.15-9.29,5.87-14.05,8.61-12.92,7.46-19.7,18.73-20.13,33.49-.31,10.63,0,21.29.48,31.92s1.91,21.29-1.35,31.75c-.64,2-1.58,4-2.8,7-5.13-5.77-9.83-10.88-14.25-16.21-.7-.85-.53-2.82-.15-4.1,5.63-19.23,6.09-39.08,7.1-58.86a28.65,28.65,0,0,0-.45-6.47c-2-11.33-10.31-16.41-21.32-13-4,1.23-7.73,3-11.64,4.46-3.66,1.33-6.61.67-9.17-2.71-6.51-8.61-13.8-10.83-24.15-7.17-4.68,1.65-9,4.2-13.54,6.35-11.59,5.54-21.16,2.45-27.3-8.83-.64-1.17-1.27-2.35-2-3.48-6-9.67-15.17-10.78-22.55-2-4.55,5.42-7.54,12.12-11.74,17.88-3.27,4.5-6.8,9.09-11.14,12.45-5.72,4.43-10.45,3.85-15.74-1.16-12.82-12.11-16.86-27.32-15.24-45,36.77,4.21,73.14,2.26,109.57-1-2.6,0-5.19,0-7.79,0-29.34-.29-58.61-1.42-87.72-5.53-18.13-2.55-34-9-45.71-23.81-5.75-7.27-7.39-15.59-6.26-24.47a22.69,22.69,0,0,1,10.62-16.76c3.62-2.33,4-5,1.07-8.24a40.37,40.37,0,0,1-3.12-3.9c-8.11-11.49-8.18-21.18,1-31.8,4.84-5.59,10.9-10.21,16.76-14.83,4.85-3.82,5.32-4.62,2-9.62-14.89-22.74-3.12-56.12,22.73-64.47,11.28-3.64,13.65-6.65,11.42-18.28-3.34-17.47,4-29.39,18.35-37.93a81.35,81.35,0,0,1,14.93-6.86,37.22,37.22,0,0,0,20.53-16.53c4.72-7.85,9.63-15.59,14.43-23.39,12-19.58,27.71-35.42,48.4-45.71C937.65,192.58,944.74,190.77,952.16,188.1ZM782.44,471.24C868.84,495.89,952,489.51,1031.2,445,950.81,478,867.69,484.6,782.44,471.24ZM997,379.08c-32.13,9.17-64.61,17-97.77,21.4s-66.63,7.83-101,11.82C868,418.09,934.43,410,997,379.08Zm-24.71-70.31c-47.64,11.88-95.4,23-144.79,24.79C878.85,343,926.65,332.09,972.31,308.77ZM940.42,548.7c21.13,7.61,62.79,3.06,76.61-6.93Z" transform="translate(-197.12 -180.37)"/><path class="cls-2" d="M881.76,593c2.94-.93,5.92-1.76,8.81-2.83,4.19-1.55,8.35-3.22,12.47-4.95,3.36-1.42,6.55-3.35,10-4.44,6.16-1.93,9.62-.68,13.37,4.54,4,5.63,9.29,7.57,16.08,6.48,2.15-.35,4.49.51,6.74.82.13.64.27,1.28.41,1.92-9.69,6.64-18.93,14.16-29.3,19.49-3.91,2-11.27.39-15.57-2.12-8.25-4.81-15.44-11.44-23.07-17.32Z" transform="translate(-197.12 -180.37)"/><path class="cls-2" d="M929.11,902.9c-3.27,12-6.08,23.27-9.59,34.31-.61,1.91-4.21,4-6.41,4s-5.68-2.21-6.25-4.15c-5.05-17-9.57-34.21-14.52-52.32C906.72,887.74,914.8,901.27,929.11,902.9Z" transform="translate(-197.12 -180.37)"/><path class="cls-2" d="M951,636.1l-23.57-20.3c7.44-5.76,15.78-12.24,24.14-18.7.38-.29,1-.78,1.25-.65,4.32,2.42,8.84,4.6,12.71,7.6,1.23,1,.79,4.15,1,6.33.08,1-.47,2-.31,3C968.36,626.17,959.55,631.44,951,636.1Z" transform="translate(-197.12 -180.37)"/><path class="cls-2" d="M874.4,593c-9.68,3.8-19.48,8.54-29.8,11.3-4.57,1.22-10.2-1.57-14.6-2.4,5.63-9,11.14-17.88,16.75-26.7a38.4,38.4,0,0,1,4-5.06c2.74-3.06,5.24-2.92,7.67.55C863.46,577.84,868.61,584.91,874.4,593Z" transform="translate(-197.12 -180.37)"/><path class="cls-2" d="M848.71,724c-3-11-5.82-21.4-8.91-32.78,5.19-.71,10-1.49,14.88-1.95a5,5,0,0,1,3.41,1.51c5.93,6,11.74,12.19,17.91,18.63Z" transform="translate(-197.12 -180.37)"/><path class="cls-2" d="M996.14,649.64c-.14-14.52-.89-29.07-.23-43.55s7.26-22.53,21.67-28.91c-6.66,24.55-13.19,48.58-19.71,72.61Z" transform="translate(-197.12 -180.37)"/><path class="cls-2" d="M878.56,595.77l18,15.94c-8.74,2.08-39-1.12-46.94-4.88Z" transform="translate(-197.12 -180.37)"/><path class="cls-2" d="M903.18,702.25c-7.73.19-14.9-1.38-21,3.55-.61.49-2.61.05-3.41-.62-5.83-4.85-11.52-9.88-17.61-15.16C871,688.64,893.88,695.28,903.18,702.25Z" transform="translate(-197.12 -180.37)"/><path class="cls-2" d="M964.63,585.34c1.21,5.37,2.12,9.42,3,13.48l-1.41.83L956.34,593Z" transform="translate(-197.12 -180.37)"/><path class="cls-2" d="M965,631c-.86,5.06-1.45,8.58-2.14,12.67L953.6,640Z" transform="translate(-197.12 -180.37)"/><path d="M782.44,471.24C867.69,484.6,950.81,478,1031.2,445,952,489.51,868.84,495.89,782.44,471.24Z" transform="translate(-197.12 -180.37)"/><path d="M997,379.08c-62.59,30.87-129,39-198.77,33.22,34.37-4,67.74-7.43,101-11.82S964.89,388.25,997,379.08Z" transform="translate(-197.12 -180.37)"/><path d="M972.31,308.77c-45.66,23.32-93.46,34.27-144.79,24.79C876.91,331.81,924.67,320.65,972.31,308.77Z" transform="translate(-197.12 -180.37)"/><path d="M940.42,548.7l76.61-6.93C1003.21,551.76,961.55,556.31,940.42,548.7Z" transform="translate(-197.12 -180.37)"/><path d="M1013.6,814.29V791H1015A41,41,0,0,1,1013.6,814.29Z" transform="translate(-197.12 -180.37)"/><path d="M1024.5,749.88c-.75-9.24-1.42-17.45-2.12-26C1027.53,732,1028,740.24,1024.5,749.88Z" transform="translate(-197.12 -180.37)"/><path d="M1018.74,680.83q-3.15-8.16-6.31-16.3l1.91-.75,6.59,16.34Z" transform="translate(-197.12 -180.37)"/></svg>