<svg xmlns="http://www.w3.org/2000/svg" viewBox="0 0 2512.31 1447.63"><defs><style>.cls-1,.cls-2{fill:#fff;}.cls-1{fill-rule:evenodd;}.cls-2{stroke:#482c2e;stroke-linecap:round;stroke-linejoin:bevel;}.cls-3,.cls-4,.cls-5{font-size:272.48px;font-family:BodoniSvtyTwoITCTT-Book, "Bodoni 72";}.cls-3,.cls-4,.cls-6{fill:#482b2d;}.cls-4,.cls-5{stroke:#482b2d;stroke-miterlimit:10;stroke-width:1.22px;}.cls-5{fill:none;}</style></defs><g id="Layer_1" data-name="Layer 1"><path class="cls-1" d="M772.23,439q23.09,0,52.59,13.15,14.26,6.39,23.38,6.39,9.39,0,18.83-6.75l7.62,5.1-6.59,10.72q-13.95,33.59-27.54,71.13L837.37,546l-8.52-3.24a148.32,148.32,0,0,0-7.49-32.07l-4.83-10.68v3.42q-23.92-17-38.69-17-47.7,0-47.7,110.26,0,51.63,11.55,85T776,725.86v7.79l5,.35q26.28,0,42-20.38t18.76-59.34q1.15-14,10.82-14,12,0,12,19.78,0,23.29-9.21,48.57-19.68,54-80.79,54-54.09,0-85.77-43.86t-31.68-118q0-68.43,32.92-115T772.23,439Zm597.3,0q23.09,0,52.59,13.15,14.25,6.39,23.37,6.39,9.4,0,18.84-6.75l7.62,5.1-6.59,10.72q-14,33.59-27.55,71.13l-3.14,7.26-8.52-3.24a148.3,148.3,0,0,0-7.5-32.07l-4.83-10.68v3.42q-23.92-17-38.68-17-47.7,0-47.7,110.26,0,51.63,11.55,85t34.35,44.09v7.79l5,.35q26.28,0,42-20.38t18.77-59.34q1.14-14,10.82-14,12,0,12,19.78,0,23.29-9.21,48.57-19.68,54-80.79,54-54.09,0-85.77-43.86t-31.68-118q0-68.43,32.92-115T1369.53,439Zm238.32,3.72q43.77,0,72.8,22.54t29,57.94a75.3,75.3,0,0,1-19,50.82q-19,21.93-48.35,30.3,13.41,39,36.88,80.38t48.3,68.44l-5.9,3.86q-29.34,11.65-57.57,33l-8.3,3.05-1.82-10.1q-9.7-68.12-25.06-120.25L1618.39,631l-13.1,6.35a141.1,141.1,0,0,1-20,5.14l1.35-.19V723.5l35.27,50H1511.69L1506.83,758h95.41l-20.57-20.73,11.55,17.24h-96.81l26.06-34.42V649.83l-17.73,5.72-4.68.75-3.65-11.83q11.67-5.88,13.89-6.49l12.17-3.46v-3.8q-7.07,0-24.13,5.84l-7.54,1.13a91.66,91.66,0,0,1,4.27-21.54q.39-.92,2.7-10c.15-.54.69-2.34,1.6-5.4q11.22.69,16.88.7,5.32,0,6-.11V493.58a99.64,99.64,0,0,0-16.51-9.24l-4.14-4.15Q1552,442.75,1607.85,442.76ZM530.09,446.71H633.32L606.46,484.8V723.15l1.6,2V484.05L635,455.32l7.34,9.63L621.89,490V723.56l33.67,50H545.34L538.11,758h97.41l-6.16-6.41,2.35,2.92H530.09L558,720.89V482.56Zm368.22,0h222.08l-3.8,11.5q-20.27,28.83-35.69,69-6.09-8.09-7.09-10.6l-.23-.52-6.59-2.65q-15.95-14.62-22.53-17.18t-27.09-2.55q-6.23,0-22.65.93h-.2V574h30.65l32.09-41.18V642.35l-20.53-24.84,1.48,3H994.52V724.69q36.11,0,52.26-6.32t28.85-26.94l7-18.86q.32-.72,7.56-7.43,7.5,28.58,14.94,43.37t26.1,42.7H898.31l30.47-33.88V620.48q-11.38,2.19-27.66,12.1L895.5,622q14.73-13.58,33.28-16.24V603a7.56,7.56,0,0,1-.81,0q-18.79,0-41.29,17.45Q896.88,574,928.78,574V481.61Zm858.28,0h222.08l-3.8,11.5q-20.28,28.83-35.69,69-6.09-8.09-7.1-10.6l-.23-.52-6.58-2.65q-15.94-14.62-22.54-17.18t-27.08-2.55q-6.23,0-22.66.93h-.19V574h30.65l32.08-41.18V642.35L1895,617.51l1.48,3H1852.8V724.69q36.1,0,52.26-6.32t28.85-26.94l7-18.86q.31-.72,7.56-7.43,7.5,28.58,14.94,43.37t26.1,42.7H1756.59l30.46-33.88V620.48q-11.37,2.19-27.65,12.1L1753.78,622q14.73-13.58,33.27-16.24V603a7,7,0,0,1-.8,0q-18.8,0-41.29,17.45,10.2-46.53,42.09-46.52V481.61Zm345.15,0h100.62l-20.85,33.15,30.88,95.72,1.79-2.59-29.66-90.46,24.11-32.1,10.56,5.51L2199,485.83,2224,564.58l4.81-4.74A69.65,69.65,0,0,1,2242,550a383.1,383.1,0,0,0,18,56.76q-10.34-.46-12.62-.47-17.68,0-23.66,4.09l35.67,109.74,2.2,2.47-34.46-109.66a60.37,60.37,0,0,1,19.64-3.62l17.44,1.83-17-54.4,13.93,6.24q4.7,22.31,22.55,64.94-9.21-.69-9.6-.69l-16.24-1.63-15.39-1.15,32.75,96,32,37.5h95.51l-5.61-3.49H2306l5.06-10.51q22.47-14.33,29.05-27.77t6.57-43.6V482.26l-26.45-35.55h111.84L2403,483.22,2456,671.89l2.77-15.75L2407.42,482l30.39-25.52,8.29,8.9-25,22L2464.71,643l47.54-160.11-24.46-36.22h109.84l-27.46,38.79V720.71l2.61,3.57V482l27.89-21.07,8.19,8.89-22.65,20.94V721.17l34.87,52.37H2508L2503.63,758h97l-15.39-16.61,9.58,13.12H2494.41l27.86-34V570.7l-56.54,202.84h-25.28L2437.88,758h18.6l65.79-212.61v-30l-67.56,238.9h-19.93L2387,566.51V684.92q0,24.23,2.55,33.51t12.66,21.24l18.87,33.87H2198.22L2192.54,758H2299l-22.33-18.61,13.51,15.12H2180.71l27.66-33-19.74-61.87a419,419,0,0,0-30.31,49.08l-10.68-3.1,36.7-57.52-1.17-4.28q-19.1,21.46-37.83,53.51l-7.16-8.93q-5.23-9.71-11.72-20.42l-13.34-21.08-4.44,14.2q-6.94,24.78-6.94,42.74,0,13.69,4,23.13t20.09,32.62q1.44,2.13,5.36,14H2016.66L2010.74,758h97.68l-2.31-3.49H2009l-8.8,19.07H1776.48L1771.62,758h221.07l5.22-9q-28.26-29.18-40.68-71.74l13.6,3.91q11.4,30.78,38.31,63.21l.74.67,16.89-16.66a180.92,180.92,0,0,0,19.67-27.56q12.21-21.22,24.66-61.2l8-27.8-11.26-6.13a98.64,98.64,0,0,0-18.86-4.12,509.25,509.25,0,0,0,19.23-48.31q7.52,4.38,9.09,6.15l9.36,11.66a13.08,13.08,0,0,1,5,6.15l1.42-4.17-2-1.07q-9.42-9.63-15.77-15.48l-3.31-4.37,6.26-10.73q14.09,9.09,19.7,18.84L2123,479Zm-978.33,11.4,6.61,9.77L1128.1,472q-24.36,38-34.92,66.32l-8.86-8.75A253.52,253.52,0,0,1,1123.41,458.11Zm858.28,0,6.6,9.77-1.91,4.16q-24.36,38-34.93,66.32l-8.86-8.75A253.8,253.8,0,0,1,1981.69,458.11ZM879,461.83l10.3,6.39-2.8,8.34a876.34,876.34,0,0,0-36.33,81.11l-11.59-5.41,2.5-9.84q10.38-25.29,17.35-38.38L875,468.42Zm597.3,0,10.29,6.39-2.79,8.34a876.34,876.34,0,0,0-36.33,81.11l-11.59-5.41,2.5-9.84q10.38-25.29,17.35-38.38l16.53-35.62Zm-705.86,5.82q-23.37,0-43,25.82-16.74,29-16.75,104.21,0,64.92,18.83,100.62,11.76,22.31,29,30.68l1.58.62-10.74-7.87Q738,710.66,730.6,691.61q-14.69-38.11-14.69-95.32,0-124.92,60.93-124.92A40.76,40.76,0,0,1,797.3,477l4.18,3L800,478.58A44.8,44.8,0,0,0,770.43,467.65Zm597.29,0q-23.35,0-43,25.82-16.76,29-16.75,104.21,0,64.92,18.82,100.62,11.78,22.31,29,30.68l1.58.62-10.74-7.87q-11.35-11.07-18.71-30.12-14.7-38.11-14.7-95.32,0-124.92,60.94-124.92A40.76,40.76,0,0,1,1394.6,477l4.18,3-1.46-1.49A44.76,44.76,0,0,0,1367.72,467.65Zm233.92,1.16q-19.89,0-31.27,7.16V594a13.08,13.08,0,0,0,2.81-.3V479.5a100.39,100.39,0,0,1,30.46-4.64q26,0,41.9,15.27l3,3.34-6.13-9Q1626.38,468.81,1601.64,468.81Zm95.81,3.72q28.46,24.11,28.46,59.09,0,56.63-58.73,83.9,12.24,43.14,43.71,88.12,19.74,28.17,51.7,56.11a336.31,336.31,0,0,0-87.68,45.08l-4.67,2.44-7.87-8.75q40.5-32.89,81.58-44.16-57-39.79-90.73-139.88l-1.27-7.84q61.33-27.46,61.33-79.67Q1713.28,505.68,1697.45,472.53Zm-688.9,2.56q-14.84,0-31.87.94V574h4.61V479.74a320.28,320.28,0,0,1,33.07-2.09q26.34,0,39.39,6.82l1.11.81-3.14-2.71Q1040.11,475.1,1008.55,475.09Zm858.28,0q-14.83,0-31.87.94V574h4.61V479.74a320.11,320.11,0,0,1,33.07-2.09q26.33,0,39.39,6.82l1.11.81-3.14-2.71Q1898.39,475.1,1866.83,475.09Zm-263,14.42q-11.65,0-17.23,1.69V591.77l15.18-3.92q25-7.77,38.54-20.51,18-17,18-43.63l-2.43-13.16-4.87-3.27q-13.87-9.11-21.84-12.81Q1618.6,489.52,1603.84,489.51Zm535.74,14.19-27.62,92a265.06,265.06,0,0,1,25.4,34.18l8.15,13.15,1-1.49a1.9,1.9,0,0,1,1.68-1,299.86,299.86,0,0,0-32.67-43.65L2141.22,517Zm231.16,7.45V673.52q0,37.4,5.69,50.4l5.46,8.15-3.17-5.53q-5.17-12.22-5.18-28.36V544.38Zm-222.08,19.54-17.86,61.87a4.36,4.36,0,0,1,1.39,1.32l5.66,8.46a132.72,132.72,0,0,1,9.27,12.12l10,16,15-20.09Zm-1090.8,6.74,13.23,5V652.58l-13.23-4.82Zm858.28,0,13.22,5V652.58l-13.22-4.82ZM976.68,603.5V724.69h4.61V605.13h45.21l-1.34-1.63Zm858.28,0V724.69h4.61V605.13h45.21l-1.34-1.63Zm-222.38,10.12-15.34,4.22-26.87,4.44v98.09l2.81,4.19V629l7-1.17a194.76,194.76,0,0,0,20.37-3.46l13.94-4.42-.06-.06Zm488.64,14.07q-.39,5.12-4.16,18.67l-7.69,26.93a104.4,104.4,0,0,0-4.07,27q0,12.11,3.41,19.8l1.31,2.23-1-3.75a85.29,85.29,0,0,1-1.09-14.09q0-24.76,16.63-69.65ZM868.33,651l13.54,4.82q-3.36,62.49-29,94t-71.6,31.48q-34.89,0-66.35-26.11v-9q30.92,19.53,66,19.54,38,0,61.86-28.09a90.46,90.46,0,0,0,17.2-30.87q5.57-17.13,7.53-46.09Zm597.3,0,13.54,4.82q-3.36,62.49-29,94t-71.6,31.48q-34.89,0-66.35-26.11v-9q30.91,19.53,66,19.54,38,0,61.86-28.09a90.46,90.46,0,0,0,17.2-30.87q5.57-17.13,7.53-46.09ZM1099,677.24l13.6,3.91q11.4,30.78,38.31,63.21l3.21,2.88-12.14,26.3H918.2L913.34,758h221.07l5.23-9Q1111.38,719.81,1099,677.24Z" transform="translate(-109.19 -179.74)"/><path class="cls-2" d="M772.23,439q23.09,0,52.59,13.15,14.26,6.39,23.38,6.39,9.39,0,18.83-6.75l7.62,5.1-6.59,10.72q-13.95,33.59-27.54,71.13L837.37,546l-8.52-3.24a148.18,148.18,0,0,0-7.49-32.07l-4.83-10.68v3.42q-23.92-17-38.69-17-47.7,0-47.7,110.26,0,51.63,11.55,85T776,725.86v7.79l5,.35q26.28,0,42-20.38t18.76-59.34q1.15-14,10.82-14,12,0,12,19.78,0,23.29-9.21,48.57-19.68,54-80.79,54-54.09,0-85.77-43.86t-31.68-118q0-68.43,32.92-115T772.23,439Zm597.3,0q23.09,0,52.59,13.15,14.25,6.39,23.37,6.39,9.4,0,18.84-6.75l7.62,5.1-6.59,10.72q-14,33.59-27.55,71.13l-3.14,7.26-8.52-3.24a148.16,148.16,0,0,0-7.5-32.07l-4.83-10.68v3.42q-23.92-17-38.68-17-47.7,0-47.7,110.26,0,51.63,11.55,85t34.35,44.09v7.79l5,.35q26.28,0,42-20.38t18.77-59.34q1.14-14,10.82-14,12,0,12,19.78,0,23.29-9.21,48.57-19.68,54-80.79,54-54.09,0-85.77-43.86t-31.68-118q0-68.43,32.92-115T1369.53,439Zm238.32,3.72q43.77,0,72.8,22.54t29,57.94a75.3,75.3,0,0,1-19,50.82q-19,21.93-48.35,30.3,13.41,39,36.88,80.38t48.3,68.44l-5.9,3.86q-29.34,11.65-57.57,33l-8.3,3.05-1.82-10.1q-9.7-68.12-25.06-120.25L1618.39,631l-13.1,6.35a141.1,141.1,0,0,1-20,5.14l1.35-.19V723.5l35.27,50H1511.69L1506.83,758h95.41l-20.57-20.73,11.55,17.24h-96.81l26.06-34.42V649.83l-17.73,5.72-4.68.75-3.65-11.83q11.67-5.88,13.89-6.49l12.17-3.46v-3.8q-7.07,0-24.13,5.84l-7.54,1.13a91.66,91.66,0,0,1,4.27-21.54q.39-.92,2.7-10c.15-.54.69-2.34,1.6-5.4q11.22.69,16.88.7,5.32,0,6-.11V493.58a99.64,99.64,0,0,0-16.51-9.24l-4.14-4.15Q1552,442.75,1607.85,442.76ZM530.09,446.71H633.32L606.46,484.8V723.15l1.6,2V484.05L635,455.32l7.34,9.63L621.89,490V723.56l33.67,50H545.34L538.11,758h97.41l-6.16-6.41,2.35,2.92H530.09L558,720.89V482.56Zm368.22,0h222.08l-3.8,11.5q-20.27,28.83-35.69,69-6.09-8.09-7.09-10.6l-.23-.52-6.59-2.65q-15.95-14.62-22.54-17.18t-27.08-2.55q-6.23,0-22.65.93h-.2V574h30.65l32.09-41.18V642.35l-20.53-24.84,1.48,3H994.52V724.69q36.11,0,52.26-6.32t28.85-26.94l7-18.86q.32-.72,7.56-7.43,7.5,28.58,14.94,43.37t26.1,42.7H898.31l30.47-33.88V620.48q-11.38,2.19-27.66,12.1L895.5,622q14.73-13.58,33.28-16.24V603a7.56,7.56,0,0,1-.81,0q-18.79,0-41.29,17.45Q896.88,574,928.78,574V481.61Zm858.28,0h222.08l-3.8,11.5q-20.28,28.83-35.69,69-6.09-8.09-7.1-10.6l-.23-.52-6.58-2.65q-15.94-14.62-22.54-17.18t-27.08-2.55q-6.23,0-22.66.93h-.19V574h30.65l32.08-41.18V642.35L1895,617.51l1.48,3H1852.8V724.69q36.1,0,52.26-6.32t28.85-26.94l7-18.86q.31-.72,7.56-7.43,7.5,28.58,14.94,43.37t26.1,42.7H1756.59l30.46-33.88V620.48q-11.37,2.19-27.65,12.1L1753.78,622q14.73-13.58,33.27-16.24V603a7,7,0,0,1-.8,0q-18.8,0-41.29,17.45,10.2-46.53,42.09-46.52V481.61Zm345.15,0h100.62l-20.85,33.15,30.88,95.72,1.79-2.59-29.66-90.46,24.11-32.1,10.56,5.51L2199,485.83,2224,564.58l4.81-4.74A69.65,69.65,0,0,1,2242,550a383.1,383.1,0,0,0,18,56.76q-10.34-.46-12.62-.47-17.68,0-23.66,4.09l35.67,109.74,2.2,2.47-34.46-109.66a60.37,60.37,0,0,1,19.64-3.62l17.44,1.83-17-54.4,13.93,6.24q4.7,22.31,22.55,64.94-9.21-.69-9.6-.69l-16.24-1.63-15.39-1.15,32.75,96,32,37.5h95.51l-5.61-3.49H2306l5.06-10.51q22.47-14.33,29.05-27.77t6.57-43.6V482.26l-26.45-35.55h111.84L2403,483.22,2456,671.89l2.77-15.75L2407.42,482l30.39-25.52,8.29,8.9-25,22L2464.71,643l47.54-160.11-24.46-36.22h109.84l-27.46,38.79V720.71l2.61,3.57V482l27.89-21.07,8.19,8.89-22.65,20.94V721.17l34.87,52.37H2508L2503.63,758h97l-15.39-16.61,9.58,13.12H2494.41l27.86-34V570.7l-56.54,202.84h-25.28L2437.88,758h18.6l65.79-212.61v-30l-67.56,238.9h-19.93L2387,566.51V684.92q0,24.23,2.55,33.51t12.66,21.24l18.87,33.87H2198.22L2192.54,758H2299l-22.33-18.61,13.51,15.12H2180.71l27.66-33-19.74-61.87a419,419,0,0,0-30.31,49.08l-10.68-3.1,36.7-57.52-1.17-4.28q-19.1,21.46-37.83,53.51l-7.16-8.93q-5.23-9.71-11.72-20.42l-13.34-21.08-4.44,14.2q-6.94,24.78-6.94,42.74,0,13.69,4,23.13t20.09,32.62q1.42,2.13,5.36,14H2016.66L2010.74,758h97.68l-2.31-3.49H2009l-8.8,19.07H1776.48L1771.62,758h221.07l5.22-9q-28.26-29.18-40.68-71.74l13.6,3.91q11.4,30.78,38.31,63.21l.74.67,16.89-16.66a180.92,180.92,0,0,0,19.67-27.56q12.21-21.22,24.66-61.2l8-27.8-11.26-6.13a98.64,98.64,0,0,0-18.86-4.12,509.25,509.25,0,0,0,19.23-48.31q7.52,4.38,9.09,6.15l9.36,11.66a13.08,13.08,0,0,1,5,6.15l1.42-4.17-2-1.07q-9.42-9.63-15.77-15.48l-3.31-4.37,6.26-10.73q14.09,9.09,19.7,18.84L2123,479Zm-978.33,11.4,6.61,9.77L1128.1,472q-24.36,38-34.92,66.32l-8.86-8.75A253.52,253.52,0,0,1,1123.41,458.11Zm858.28,0,6.6,9.77-1.91,4.16q-24.36,38-34.93,66.32l-8.86-8.75A253.8,253.8,0,0,1,1981.69,458.11ZM879,461.83l10.3,6.39-2.8,8.34a876.34,876.34,0,0,0-36.33,81.11l-11.59-5.41,2.5-9.84q10.38-25.29,17.35-38.38L875,468.42Zm597.3,0,10.29,6.39-2.79,8.34a876.34,876.34,0,0,0-36.33,81.11l-11.59-5.41,2.5-9.84q10.38-25.29,17.35-38.38l16.53-35.62Zm-705.86,5.82q-23.37,0-43,25.82-16.74,29-16.75,104.21,0,64.92,18.83,100.62,11.76,22.31,29,30.68l1.58.62-10.74-7.87Q738,710.66,730.6,691.61q-14.69-38.11-14.69-95.32,0-124.92,60.93-124.92A40.76,40.76,0,0,1,797.3,477l4.18,3L800,478.58A44.8,44.8,0,0,0,770.43,467.65Zm597.29,0q-23.35,0-43,25.82-16.76,29-16.75,104.21,0,64.92,18.82,100.62,11.78,22.31,29,30.68l1.58.62-10.74-7.87q-11.35-11.07-18.71-30.12-14.7-38.11-14.7-95.32,0-124.92,60.94-124.92A40.76,40.76,0,0,1,1394.6,477l4.18,3-1.46-1.49A44.76,44.76,0,0,0,1367.72,467.65Zm233.92,1.16q-19.89,0-31.27,7.16V594a13.08,13.08,0,0,0,2.81-.3V479.5a100.39,100.39,0,0,1,30.46-4.64q26,0,41.9,15.27l3,3.34-6.13-9Q1626.38,468.81,1601.64,468.81Zm95.81,3.72q28.46,24.11,28.46,59.09,0,56.63-58.73,83.9,12.24,43.14,43.71,88.12,19.74,28.17,51.7,56.11a336.31,336.31,0,0,0-87.68,45.08l-4.67,2.44-7.87-8.75q40.5-32.89,81.58-44.16-57-39.79-90.73-139.88l-1.27-7.84q61.33-27.46,61.33-79.67Q1713.28,505.68,1697.45,472.53Zm-688.9,2.56q-14.84,0-31.87.94V574h4.61V479.74a320.28,320.28,0,0,1,33.07-2.09q26.34,0,39.39,6.82l1.11.81-3.14-2.71Q1040.11,475.1,1008.55,475.09Zm858.28,0q-14.83,0-31.87.94V574h4.61V479.74a320.11,320.11,0,0,1,33.07-2.09q26.33,0,39.39,6.82l1.11.81-3.14-2.71Q1898.39,475.1,1866.83,475.09Zm-263,14.42q-11.65,0-17.23,1.69V591.77l15.18-3.92q25-7.77,38.54-20.51,18-17,18-43.63l-2.43-13.16-4.87-3.27q-13.87-9.11-21.84-12.81Q1618.6,489.52,1603.84,489.51Zm535.74,14.19-27.62,92a265.06,265.06,0,0,1,25.4,34.18l8.15,13.15,1-1.49a1.9,1.9,0,0,1,1.68-1,299.86,299.86,0,0,0-32.67-43.65L2141.22,517Zm231.16,7.45V673.52q0,37.4,5.69,50.4l5.46,8.15-3.17-5.53q-5.17-12.22-5.18-28.36V544.38Zm-222.08,19.54-17.86,61.87a4.36,4.36,0,0,1,1.39,1.32l5.66,8.46a132.72,132.72,0,0,1,9.27,12.12l10,16,15-20.09Zm-1090.8,6.74,13.23,5V652.58l-13.23-4.82Zm858.28,0,13.22,5V652.58l-13.22-4.82ZM976.68,603.5V724.69h4.61V605.13h45.21l-1.34-1.63Zm858.28,0V724.69h4.61V605.13h45.21l-1.34-1.63Zm-222.38,10.12-15.34,4.22-26.87,4.44v98.09l2.81,4.19V629l7-1.17a194.76,194.76,0,0,0,20.37-3.46l13.94-4.42-.06-.06Zm488.64,14.07q-.39,5.12-4.16,18.67l-7.69,26.93a104.4,104.4,0,0,0-4.07,27q0,12.11,3.41,19.8l1.31,2.23-1-3.75a85.29,85.29,0,0,1-1.09-14.09q0-24.76,16.63-69.65ZM868.33,651l13.54,4.82q-3.36,62.49-29,94t-71.6,31.48q-34.89,0-66.35-26.11v-9q30.92,19.53,66,19.54,38,0,61.86-28.09a90.46,90.46,0,0,0,17.2-30.87q5.57-17.13,7.53-46.09Zm597.3,0,13.54,4.82q-3.36,62.49-29,94t-71.6,31.48q-34.89,0-66.35-26.11v-9q30.91,19.53,66,19.54,38,0,61.86-28.09a90.46,90.46,0,0,0,17.2-30.87q5.57-17.13,7.53-46.09ZM1099,677.24l13.6,3.91q11.4,30.78,38.31,63.21l3.21,2.88-12.14,26.3H918.2L913.34,758h221.07l5.23-9Q1111.38,719.81,1099,677.24Z" transform="translate(-109.19 -179.74)"/><text class="cls-3" transform="translate(390.62 232.49) scale(0.81 1)">O</text><text class="cls-4" transform="translate(390.62 232.49) scale(0.81 1)">O</text><text class="cls-3" transform="translate(550.26 232.49) scale(0.81 1)">l</text><text class="cls-5" transform="translate(550.26 232.49) scale(0.81 1)">l</text><text class="cls-3" transform="translate(602.51 232.49) scale(0.81 1)">d</text><text class="cls-5" transform="translate(602.51 232.49) scale(0.81 1)">d</text><text class="cls-3" transform="translate(708.13 232.49) scale(0.81 1)"> </text><text class="cls-5" transform="translate(708.13 232.49) scale(0.81 1)"> </text><text class="cls-3" transform="translate(749.53 232.49) scale(0.81 1)">T</text><text class="cls-5" transform="translate(749.53 232.49) scale(0.81 1)">T</text><text class="cls-3" transform="translate(879.5 232.49) scale(0.81 1)">o</text><text class="cls-5" transform="translate(879.5 232.49) scale(0.81 1)">o</text><text class="cls-3" transform="translate(986 232.49) scale(0.81 1)">w</text><text class="cls-5" transform="translate(986 232.49) scale(0.81 1)">w</text><text class="cls-3" transform="translate(1118.85 232.49) scale(0.81 1)">n</text><text class="cls-5" transform="translate(1118.85 232.49) scale(0.81 1)">n</text></g><g id="Layer_2" data-name="Layer 2"><path class="cls-6" d="M463.93,269.18m-67.07,17.19M453.58,268,294,617.46c-.48,40.37,3.51,79.09,20.57,114.41,8.36,17.32,21.63,28.59,38.16,29.23-2.58-26.29-7.19-52-7.15-77.66.07-47.09,18.76-81,60.12-96.1,19.46-7.09,49.68,10,58,38.85,8.88,30.82,4.4,60-7.88,88.56-13.09,30.49-34,50.73-63.17,62.55,2.3,4.44,4,8.13,6,11.57,15,25.34,35.7,43.12,59.32,57.41,40.45,24.48,84.15,34.15,129.3,37.14,75.18,5,149.6-3.22,223.38-18.84,30.21-6.39,59.94-15.69,89.89-23.65,19.08-5.06,30.86,7.94,25.1,29.07q-15.6,57.32-32.83,114.08-42.18,139.93-85,279.65-41.31,135.88-82.6,271.78c-7.84,25.82-15.51,51.71-23.18,77.6-2.2,7.46-4.7,14.64-13.19,14.24-7.8-.37-10.06-7.14-12.05-14.28Q630.3,1445.4,583.6,1277.76q-37.07-133.69-73.74-267.53-6.86-24.94-13.31-50c-.92-3.56-1-7.4-1.47-11.12l3.58-2c2.11,4,4.91,7.77,6.23,12.1q31.35,103.3,62.36,206.76,34.77,115.83,69.37,231.73,23,77,45.77,154.17c1.78,6,3.7,11.88,6.48,20.76L879.15,890.74c-14.28,2.77-28.6,5.65-42.95,8.3-81.4,15-163.14,23.44-245.66,15.54-37.94-3.63-75.23-11.19-111-26.24-46.05-19.36-83.22-51.45-110.34-98.09-2.08-3.57-7.68-6-11.81-6.38-36.13-3-61.4-23-77.83-59.36-14.67-32.51-20.36-67.14-22.62-101.8-20.72-4.39-40.61-6.18-59.06-12.94C120.4,581.39,87.15,489.12,124.61,411.23,149,360.53,258.1,85.31,601.67,225c1.85.87-2.62-1.6,0,0,13.36,8.58-11.29-4.14-20.56-1.41a16.08,16.08,0,0,1-10.08,0C529.28,208.54,380.84,175,245,286.37c-30.4,24.92-61.7,55.67-86.59,142.51-11.28,39.36-13.82,50.39-6.64,91,5.24,29.62,31.07,55.41,53.28,65.31,24.24,10.81,35.27,13.22,50.43,11M373.87,749.4c29.68-21.26,46.25-49.65,52.87-85.16,2-10.57,1.67-22.2.17-32.94-3-21.56-19.22-31.22-36.08-20.62a52.81,52.81,0,0,0-19.53,23.5C356,672,364.51,709.74,373.87,749.4Z" transform="translate(-109.19 -179.74)"/><path class="cls-6" d="M616.63,959.51c1.42-8.64,2.56-15.54,3.7-22.43l2.14-.32c1.11,7.56,2.1,15.15,3.39,22.67.57,3.36.85,7.72,2.8,9.71,18.57,19,37.48,37.55,58,57.95,2.61-21.42,6.18-41.11,6.81-60.91.24-7.45-6.35-15.17-11-25.36l12,8.28,2.32-3.87c3.71,5.22,6.85,11,11.08,15.36,18.46,19.23,37.23,38.08,57.73,58.93,3-24.62,5.73-47.71,8.5-70.8l1.55.12c0,22.83.71,45.7-.33,68.47-.46,10.19,1.46,17.4,8.41,23.62,6.52,5.85,12.58,12.35,18.85,18.56l-2.46,3.45-26.64-14.08c-4.18,21.06-8.39,41.72-12.2,62.47-.4,2.14,1.15,5.17,2.5,7.2,4.38,6.6,9.1,12.92,12.29,21.48l-17.51-13.94c-5.9,19.64-11.9,38.89-17.29,58.35-.82,3,.44,7.5,2.09,10.29,3.43,5.8,7.77,10.91,10.59,17.82l-17.63-13.07c-6.7,17.32-13.45,34.13-19.56,51.23-.84,2.37.85,6.62,2.4,9.21,6.38,10.67,13.16,21,18.73,33.07l-28.18-22.84c-6.73,14.92-13.47,29.14-19.43,43.76-1,2.51.48,7.39,2.19,10.07,7.54,11.88,15.59,23.35,23.45,35l-1.81,2.39-33.44-27c-7.27,14.53-14.58,29.17-21.06,42.13l32.82,49.67-3.38,3.21c-25.91-10.75-42.35-32.64-55.51-63.45l20.13,8.61c5.35-15,11.08-30.52,16.25-46.28.66-2-1-6-2.65-7.89-13.77-15.21-27.8-30.13-42.21-45.63L618.9,1284c9.45-24-13.73-30.07-19.69-47.71l26.22,15.51c5.22-16.9,10.63-33.44,15.23-50.27.71-2.6-1.55-7.3-3.65-9.63-13.53-15-27.4-29.57-41.75-44.92l-6.45,8.35c5.41-15-7.45-20.61-13-32.91l15.26,8.82c3.53-22.53,7.27-45,10.33-67.53.41-3-1.92-7.34-4.15-9.63-9-9.31-18.54-18.06-27.87-27l1.23-2.65,34.18,19.46c3.3-23.2,6.68-45.9,9.54-68.69.3-2.34-2.17-5.59-4-7.72-6-7-12.3-13.69-17-22.79Zm133,133.73c2.74-12,6.23-28.37,10.3-44.56,1.68-6.67.1-10.34-4.52-15-14.76-15-28.77-30.88-43-46.53-3.27-3.61-6.19-7.63-10-12.37-1.17,22.06-2.33,41.75-3.14,61.46-.12,2.83.63,6.71,2.31,8.46C717.6,1061.23,733.91,1077.43,749.63,1093.24Zm-100.69,84c4.63-15.39,9.35-30.22,13.4-45.28.84-3.15.37-8.45-1.48-10.54-13.72-15.57-28-30.58-42.52-46.3l-19.46,61.37ZM628.62,993.4c-2,18.08-4.52,39.42-6.8,60.79a7.22,7.22,0,0,0,1.72,5.14c15.17,14.25,30.48,28.32,46.78,43.39,3.48-15.09,6.44-28.87,9.9-42.48,1.77-7,.21-11.8-4.48-16.67C659.39,1026.57,643.38,1009.16,628.62,993.4Zm98.14,180.16c5.89-20.56,11-38.14,15.86-55.82.51-1.82.13-5.07-1-6.18-15.1-14.91-30.4-29.56-46.14-44.76-3.66,16.38-7.23,31.63-10.32,47a12.15,12.15,0,0,0,1.77,8.44C699.38,1138.67,712.13,1154.81,726.76,1173.56Zm-94.57,84,46.56,48.21c5.73-16.34,11.08-31.24,16.06-46.3.68-2.06.26-5.9-1-7.29-13-14-26.31-27.57-40-41.78ZM678.05,1143c-5.4,15.45-10.47,29.63-15.24,43.93-.59,1.78-.36,5.06.71,6.24,13.16,14.45,26.55,28.65,40.15,43.2,5.19-14.38,10.69-28.89,15.51-43.68.92-2.81.21-8.05-1.59-9.94C705.08,1169.52,692.07,1156.92,678.05,1143Z" transform="translate(-109.19 -179.74)"/></g></svg>